HIERARCHY
ROOT Hips
{
	OFFSET 0.00 0.00 0.00
	CHANNELS 6 Xposition Yposition Zposition Xrotation Yrotation Zrotation
	JOINT Spine
	{
		OFFSET 0.00000 1.75157 2.62736
		CHANNELS 3 Xrotation Yrotation Zrotation
		JOINT Spine1
		{
			OFFSET 0.00000 0.60831 3.44992
			CHANNELS 3 Xrotation Yrotation Zrotation
			JOINT Spine2
			{
				OFFSET 0.00000 0.30532 3.48981
				CHANNELS 3 Xrotation Yrotation Zrotation
				JOINT Spine3
				{
					OFFSET 0.00000 0.00000 3.50314
					CHANNELS 3 Xrotation Yrotation Zrotation
					JOINT Neck
					{
						OFFSET 0.00000 -1.31367 9.19575
						CHANNELS 3 Xrotation Yrotation Zrotation
						JOINT Head
						{
							OFFSET 0.00000 -0.83643 4.74364
							CHANNELS 3 Xrotation Yrotation Zrotation
							End Site
							{
								OFFSET 0.00000 0.00001 5.67071
							}
						}
					}
					JOINT RightShoulder
					{
						OFFSET -1.05974 -1.76624 5.72262
						CHANNELS 3 Xrotation Yrotation Zrotation
						JOINT RightArm
						{
							OFFSET -5.26340 0.00000 0.00000
							CHANNELS 3 Xrotation Yrotation Zrotation
							JOINT RightForeArm
							{
								OFFSET -10.14667 0.00000 0.00000
								CHANNELS 3 Xrotation Yrotation Zrotation
								JOINT RightHand
								{
									OFFSET -8.53343 0.00000 0.00000
									CHANNELS 3 Xrotation Yrotation Zrotation
									JOINT RightHandEnd
									{
										OFFSET -2.46135 0.00000 0.00000
										CHANNELS 3 Xrotation Yrotation Zrotation
										End Site
										{
											OFFSET -2.46135 0.00000 0.00000
										}
									}
									JOINT RightHandThumb1
									{
										OFFSET -0.98454 -1.64090 -0.65636
										CHANNELS 3 Yrotation Xrotation Zrotation
										End Site
										{
											OFFSET -2.37748 -0.63704 0.00000
										}
									}
								}
							}
						}
					}
					JOINT LeftShoulder
					{
						OFFSET 1.05974 -1.76624 5.72262
						CHANNELS 3 Xrotation Yrotation Zrotation
						JOINT LeftArm
						{
							OFFSET 5.26340 0.00000 0.00000
							CHANNELS 3 Xrotation Yrotation Zrotation
							JOINT LeftForeArm
							{
								OFFSET 10.14667 0.00000 0.00000
								CHANNELS 3 Xrotation Yrotation Zrotation
								JOINT LeftHand
								{
									OFFSET 8.53343 0.00000 0.00000
									CHANNELS 3 Xrotation Yrotation Zrotation
									JOINT LeftHandEnd
									{
										OFFSET 2.46135 0.00000 0.00000
										CHANNELS 3 Xrotation Yrotation Zrotation
										End Site
										{
											OFFSET 2.46135 0.00000 0.00000
										}
									}
									JOINT LeftHandThumb1
									{
										OFFSET 0.98454 -1.64090 -0.65636
										CHANNELS 3 Yrotation Xrotation Zrotation
										End Site
										{
											OFFSET 2.37748 -0.63704 0.00000
										}
									}
								}
							}
						}
					}
				}
			}
		}
	}
	JOINT RightUpLeg
	{
		OFFSET -3.14391 0.00000 -0.91845
		CHANNELS 3 Xrotation Yrotation Zrotation
		JOINT RightLeg
		{
			OFFSET 0.00000 0.00000 -14.43197
			CHANNELS 3 Xrotation Yrotation Zrotation
			JOINT RightFoot
			{
				OFFSET 0.00000 0.00000 -14.31693
				CHANNELS 3 Xrotation Yrotation Zrotation
				JOINT RightToeBase
				{
					OFFSET 0.00000 -4.51635 -1.64382
					CHANNELS 3 Xrotation Yrotation Zrotation
					End Site
					{
						OFFSET 0.00000 -2.54339 -0.00000
					}
				}
			}
		}
	}
	JOINT LeftUpLeg
	{
		OFFSET 3.14391 0.00000 -0.91845
		CHANNELS 3 Xrotation Yrotation Zrotation
		JOINT LeftLeg
		{
			OFFSET 0.00000 0.00000 -14.43197
			CHANNELS 3 Xrotation Yrotation Zrotation
			JOINT LeftFoot
			{
				OFFSET 0.00000 0.00000 -14.31693
				CHANNELS 3 Xrotation Yrotation Zrotation
				JOINT LeftToeBase
				{
					OFFSET 0.00000 -4.51635 -1.64382
					CHANNELS 3 Xrotation Yrotation Zrotation
					End Site
					{
						OFFSET 0.00000 -2.54339 -0.00000
					}
				}
			}
		}
	}
}
MOTION
Frames: 10
Frame Time: 0.008342
 14.0251 -20.2134 31.8211 2.0975 -2.4840 -93.9479 -1.2982 -0.8081 0.0211 -1.0274 -0.9043 -0.1476 0.5257 -0.3926 -1.5740 0.0755 0.3157 -0.4756 -3.7495 1.2530 -1.3524 2.9771 -1.7031 -1.6718 -2.0274 10.1166 2.7852 -8.9404 -5.8476 -8.9698 0.0000 0.0000 1.5010 1.5414 19.0130 -8.7434 0.0000 0.0000 0.0000 0.0000 0.0000 -0.0000 -2.4517 -11.7436 -3.1171 -3.7886 11.8794 18.4690 -0.0000 -0.0000 -10.2962 -4.0747 -3.1375 1.3737 -0.0000 0.0000 -0.0000 0.0000 0.0000 0.0000 1.5842 0.1929 -5.6701 -3.8721 0.0000 -0.0000 -3.1912 -4.1771 -14.6684 2.5511 0.0000 0.0000 -1.0214 -4.8898 30.6136 0.4503 0.0000 0.0000 -0.7997 3.2349 4.2656 0.4780 0.0000 0.0000
 14.0253 -20.2118 31.8213 2.1008 -2.4861 -93.9645 -1.2930 -0.8088 0.0243 -1.0254 -0.9056 -0.1466 0.5289 -0.3939 -1.5763 0.0752 0.3152 -0.4730 -3.7530 1.2602 -1.3545 2.9746 -1.7148 -1.6711 -2.0241 10.1335 2.7835 -8.9380 -5.8690 -8.9668 0.0000 0.0000 1.5041 1.5440 19.0143 -8.7469 0.0000 -0.0000 0.0000 -0.0000 -0.0000 0.0000 -2.4460 -11.7441 -3.1194 -3.8007 11.8851 18.4705 -0.0000 -0.0000 -10.2887 -4.0736 -3.1253 1.3741 0.0000 0.0000 0.0000 0.0000 -0.0000 0.0000 1.5690 0.1853 -5.7239 -3.8500 0.0000 -0.0000 -3.1945 -4.1813 -14.5979 2.5537 0.0000 0.0000 -1.0437 -4.9092 30.6535 0.5033 0.0000 0.0000 -0.8235 3.2305 4.2434 0.4724 0.0000 0.0000
 14.0262 -20.2095 31.8214 2.1059 -2.4964 -93.9859 -1.2916 -0.8112 0.0290 -1.0247 -0.9076 -0.1468 0.5330 -0.3942 -1.5773 0.0749 0.3155 -0.4723 -3.7569 1.2648 -1.3569 2.9726 -1.7262 -1.6685 -2.0238 10.1501 2.7880 -8.9319 -5.8935 -8.9685 0.0000 0.0000 1.5092 1.5461 19.0173 -8.7504 -0.0000 0.0000 0.0000 0.0000 -0.0000 -0.0000 -2.4419 -11.7460 -3.1221 -3.8127 11.8930 18.4733 -0.0000 -0.0000 -10.2792 -4.0718 -3.1127 1.3757 -0.0000 -0.0000 -0.0000 -0.0000 -0.0000 0.0000 1.5386 0.1737 -5.7987 -3.8179 0.0000 -0.0000 -3.1989 -4.1865 -14.5018 2.5567 0.0000 0.0000 -1.0837 -4.9377 30.7027 0.5773 0.0000 0.0000 -0.8559 3.2235 4.2171 0.4637 0.0000 0.0000
 14.0271 -20.2068 31.8215 2.1118 -2.5088 -94.0115 -1.2896 -0.8130 0.0338 -1.0234 -0.9102 -0.1463 0.5366 -0.3952 -1.5786 0.0743 0.3168 -0.4720 -3.7598 1.2677 -1.3591 2.9708 -1.7387 -1.6646 -2.0232 10.1689 2.7944 -8.9260 -5.9230 -8.9701 0.0000 0.0000 1.5142 1.5478 19.0219 -8.7536 -0.0000 -0.0000 -0.0000 0.0000 -0.0000 -0.0000 -2.4397 -11.7501 -3.1259 -3.8215 11.9056 18.4761 -0.0000 -0.0000 -10.2671 -4.0696 -3.1010 1.3783 0.0000 0.0000 0.0000 0.0000 0.0000 0.0000 1.5017 0.1597 -5.8963 -3.7789 0.0000 -0.0000 -3.2042 -4.1932 -14.3789 2.5575 0.0000 0.0000 -1.1332 -4.9726 30.7607 0.6692 0.0000 0.0000 -0.8956 3.2158 4.1867 0.4524 0.0000 0.0000
 14.0283 -20.2034 31.8216 2.1196 -2.5232 -94.0408 -1.2864 -0.8160 0.0401 -1.0226 -0.9129 -0.1461 0.5400 -0.3955 -1.5810 0.0733 0.3185 -0.4721 -3.7606 1.2678 -1.3615 2.9690 -1.7515 -1.6586 -2.0214 10.1888 2.8025 -8.9213 -5.9572 -8.9707 0.0000 0.0000 1.5177 1.5502 19.0289 -8.7556 -0.0000 -0.0000 0.0000 0.0000 -0.0000 0.0000 -2.4385 -11.7568 -3.1303 -3.8271 11.9222 18.4792 -0.0000 -0.0000 -10.2535 -4.0677 -3.0910 1.3821 0.0000 -0.0000 -0.0000 -0.0000 0.0000 0.0000 1.4591 0.1420 -6.0149 -3.7336 0.0000 -0.0000 -3.2100 -4.2014 -14.2315 2.5566 0.0000 0.0000 -1.1915 -5.0154 30.8264 0.7785 0.0000 0.0000 -0.9430 3.2069 4.1530 0.4385 0.0000 0.0000
 14.0295 -20.1997 31.8216 2.1278 -2.5403 -94.0726 -1.2835 -0.8188 0.0472 -1.0206 -0.9166 -0.1458 0.5413 -0.3941 -1.5839 0.0722 0.3210 -0.4732 -3.7595 1.2644 -1.3644 2.9679 -1.7638 -1.6506 -2.0193 10.2081 2.8128 -8.9174 -5.9944 -8.9710 0.0000 0.0000 1.5206 1.5543 19.0374 -8.7568 0.0000 -0.0000 -0.0000 -0.0000 0.0000 0.0000 -2.4397 -11.7662 -3.1355 -3.8263 11.9433 18.4820 -0.0000 -0.0000 -10.2388 -4.0652 -3.0836 1.3863 0.0000 0.0000 -0.0000 0.0000 -0.0000 -0.0000 1.4110 0.1227 -6.1516 -3.6837 0.0000 -0.0000 -3.2165 -4.2108 -14.0637 2.5535 0.0000 0.0000 -1.2585 -5.0633 30.8957 0.9025 0.0000 0.0000 -0.9963 3.1978 4.1186 0.4226 0.0000 0.0000
 14.0308 -20.1956 31.8216 2.1363 -2.5589 -94.1060 -1.2811 -0.8211 0.0550 -1.0162 -0.9225 -0.1457 0.5394 -0.3894 -1.5872 0.0712 0.3239 -0.4751 -3.7555 1.2569 -1.3675 2.9673 -1.7749 -1.6415 -2.0159 10.2260 2.8242 -8.9164 -6.0335 -8.9708 0.0000 0.0000 1.5223 1.5586 19.0473 -8.7563 0.0000 0.0000 -0.0000 -0.0000 -0.0000 -0.0000 -2.4432 -11.7787 -3.1411 -3.8176 11.9691 18.4834 -0.0000 -0.0000 -10.2237 -4.0612 -3.0797 1.3907 0.0000 0.0000 -0.0000 -0.0000 0.0000 0.0000 1.3598 0.1021 -6.3023 -3.6312 0.0000 -0.0000 -3.2233 -4.2212 -13.8806 2.5482 0.0000 0.0000 -1.3321 -5.1156 30.9659 1.0383 0.0000 0.0000 -1.0545 3.1886 4.0854 0.4059 0.0000 0.0000
 14.0321 -20.1912 31.8215 2.1454 -2.5776 -94.1395 -1.2766 -0.8247 0.0638 -1.0144 -0.9256 -0.1454 0.5388 -0.3856 -1.5915 0.0695 0.3274 -0.4781 -3.7492 1.2470 -1.3710 2.9670 -1.7854 -1.6314 -2.0115 10.2424 2.8367 -8.9177 -6.0732 -8.9696 0.0000 0.0000 1.5222 1.5647 19.0575 -8.7545 -0.0000 0.0000 0.0000 0.0000 -0.0000 -0.0000 -2.4475 -11.7934 -3.1466 -3.8024 11.9985 18.4832 -0.0000 -0.0000 -10.2094 -4.0567 -3.0791 1.3956 -0.0000 -0.0000 -0.0000 0.0000 0.0000 -0.0000 1.3084 0.0801 -6.4665 -3.5779 0.0000 -0.0000 -3.2300 -4.2330 -13.6839 2.5407 0.0000 0.0000 -1.4091 -5.1716 31.0345 1.1831 0.0000 0.0000 -1.1170 3.1793 4.0543 0.3887 0.0000 0.0000
 14.0333 -20.1866 31.8214 2.1539 -2.5968 -94.1719 -1.2725 -0.8272 0.0726 -1.0108 -0.9300 -0.1447 0.5351 -0.3798 -1.5960 0.0681 0.3316 -0.4820 -3.7403 1.2344 -1.3746 2.9670 -1.7952 -1.6219 -2.0065 10.2567 2.8492 -8.9218 -6.1125 -8.9685 0.0000 0.0000 1.5221 1.5729 19.0670 -8.7530 0.0000 0.0000 -0.0000 -0.0000 -0.0000 0.0000 -2.4534 -11.8099 -3.1524 -3.7781 12.0309 18.4806 -0.0000 -0.0000 -10.1961 -4.0519 -3.0822 1.3988 0.0000 -0.0000 0.0000 0.0000 0.0000 0.0000 1.2575 0.0584 -6.6358 -3.5263 0.0000 -0.0000 -3.2363 -4.2452 -13.4835 2.5328 0.0000 0.0000 -1.4891 -5.2287 31.0972 1.3331 0.0000 0.0000 -1.1817 3.1705 4.0283 0.3727 0.0000 0.0000
 14.0346 -20.1820 31.8212 2.1622 -2.6191 -94.2024 -1.2714 -0.8299 0.0822 -1.0064 -0.9365 -0.1448 0.5299 -0.3695 -1.6003 0.0666 0.3359 -0.4867 -3.7294 1.2193 -1.3794 2.9671 -1.8036 -1.6129 -2.0009 10.2672 2.8614 -8.9289 -6.1500 -8.9673 0.0000 0.0000 1.5208 1.5830 19.0772 -8.7505 0.0000 -0.0000 0.0000 -0.0000 0.0000 0.0000 -2.4605 -11.8276 -3.1586 -3.7467 12.0647 18.4760 -0.0000 -0.0000 -10.1850 -4.0469 -3.0878 1.4005 -0.0000 0.0000 0.0000 -0.0000 -0.0000 -0.0000 1.2042 0.0366 -6.8070 -3.4760 0.0000 -0.0000 -3.2423 -4.2577 -13.2833 2.5240 0.0000 0.0000 -1.5742 -5.2870 31.1525 1.4867 0.0000 0.0000 -1.2481 3.1612 4.0078 0.3581 0.0000 0.0000
